REM DIRINDEX 1\3,1\2\4,1\2\5,1\2\6
REM DIRNAME cjc137,folder01,folder02,folder03,folder04,folder05
TITLE ""
FILE "007.mp3" MP3
  TRACK 01 AUDIO
    TITLE "4:cjc137_0255"
    INDEX 01 00:00:00
  TRACK 02 AUDIO
    TITLE "0:"
    INDEX 01 00:01:15
  TRACK 03 AUDIO
    TITLE "6:cjc137_0256"
    INDEX 01 00:01:26
  TRACK 04 AUDIO
    TITLE "0:"
    INDEX 01 00:02:45
  TRACK 05 AUDIO
    TITLE "5:cjc137_0257"
    INDEX 01 00:02:59
  TRACK 06 AUDIO
    TITLE "0:"
    INDEX 01 00:03:72
  TRACK 07 AUDIO
    TITLE "4:cjc137_0258"
    INDEX 01 00:05:05
  TRACK 08 AUDIO
    TITLE "0:"
    INDEX 01 00:06:18
  TRACK 09 AUDIO
    TITLE "6:cjc137_0259"
    INDEX 01 00:06:28
  TRACK 10 AUDIO
    TITLE "0:"
    INDEX 01 00:07:15
  TRACK 11 AUDIO
    TITLE "5:cjc137_0260"
    INDEX 01 00:07:25
  TRACK 12 AUDIO
    TITLE "0:"
    INDEX 01 00:08:40
  TRACK 13 AUDIO
    TITLE "4:cjc137_0261"
    INDEX 01 00:09:47
  TRACK 14 AUDIO
    TITLE "0:"
    INDEX 01 00:10:51
  TRACK 15 AUDIO
    TITLE "6:cjc137_0262"
    INDEX 01 00:10:63
  TRACK 16 AUDIO
    TITLE "0:"
    INDEX 01 00:11:52
  TRACK 17 AUDIO
    TITLE "5:cjc137_0263"
    INDEX 01 00:11:62
  TRACK 18 AUDIO
    TITLE "0:"
    INDEX 01 00:12:67
  TRACK 19 AUDIO
    TITLE "4:cjc137_0264"
    INDEX 01 00:13:73
  TRACK 20 AUDIO
    TITLE "0:"
    INDEX 01 00:14:72
  TRACK 21 AUDIO
    TITLE "6:cjc137_0265"
    INDEX 01 00:15:09
  TRACK 22 AUDIO
    TITLE "0:"
    INDEX 01 00:16:36
  TRACK 23 AUDIO
    TITLE "5:cjc137_0266"
    INDEX 01 00:16:48
  TRACK 24 AUDIO
    TITLE "0:"
    INDEX 01 00:17:51
  TRACK 25 AUDIO
    TITLE "4:cjc137_0267"
    INDEX 01 00:18:60
  TRACK 26 AUDIO
    TITLE "0:"
    INDEX 01 00:19:63
  TRACK 27 AUDIO
    TITLE "6:cjc137_0268"
    INDEX 01 00:20:00
  TRACK 28 AUDIO
    TITLE "0:"
    INDEX 01 00:21:15
  TRACK 29 AUDIO
    TITLE "5:cjc137_0269"
    INDEX 01 00:21:29
  TRACK 30 AUDIO
    TITLE "0:"
    INDEX 01 00:22:30
  TRACK 31 AUDIO
    TITLE "4:cjc137_0270"
    INDEX 01 00:23:44
  TRACK 32 AUDIO
    TITLE "0:"
    INDEX 01 00:24:57
  TRACK 33 AUDIO
    TITLE "6:cjc137_0271"
    INDEX 01 00:24:69
  TRACK 34 AUDIO
    TITLE "0:"
    INDEX 01 00:26:01
  TRACK 35 AUDIO
    TITLE "5:cjc137_0272"
    INDEX 01 00:26:15
  TRACK 36 AUDIO
    TITLE "0:"
    INDEX 01 00:27:30
  TRACK 37 AUDIO
    TITLE "4:cjc137_0273"
    INDEX 01 00:28:39
  TRACK 38 AUDIO
    TITLE "0:"
    INDEX 01 00:29:42
  TRACK 39 AUDIO
    TITLE "6:cjc137_0274"
    INDEX 01 00:29:54
  TRACK 40 AUDIO
    TITLE "0:"
    INDEX 01 00:31:00
  TRACK 41 AUDIO
    TITLE "5:cjc137_0275"
    INDEX 01 00:31:10
  TRACK 42 AUDIO
    TITLE "0:"
    INDEX 01 00:32:15
  TRACK 43 AUDIO
    TITLE "4:cjc137_0276"
    INDEX 01 00:33:22
  TRACK 44 AUDIO
    TITLE "0:"
    INDEX 01 00:34:24
  TRACK 45 AUDIO
    TITLE "6:cjc137_0277"
    INDEX 01 00:34:36
  TRACK 46 AUDIO
    TITLE "0:"
    INDEX 01 00:35:21
  TRACK 47 AUDIO
    TITLE "5:cjc137_0278"
    INDEX 01 00:35:31
  TRACK 48 AUDIO
    TITLE "0:"
    INDEX 01 00:36:36
  TRACK 49 AUDIO
    TITLE "4:cjc137_0279"
    INDEX 01 00:37:42
  TRACK 50 AUDIO
    TITLE "0:"
    INDEX 01 00:38:45
  TRACK 51 AUDIO
    TITLE "6:cjc137_0280"
    INDEX 01 00:38:57
  TRACK 52 AUDIO
    TITLE "0:"
    INDEX 01 00:39:58
  TRACK 53 AUDIO
    TITLE "5:cjc137_0281"
    INDEX 01 00:39:68
  TRACK 54 AUDIO
    TITLE "0:"
    INDEX 01 00:40:72
  TRACK 55 AUDIO
    TITLE "4:cjc137_0282"
    INDEX 01 00:42:04
  TRACK 56 AUDIO
    TITLE "0:"
    INDEX 01 00:43:03
  TRACK 57 AUDIO
    TITLE "6:cjc137_0283"
    INDEX 01 00:43:21
  TRACK 58 AUDIO
    TITLE "0:"
    INDEX 01 00:44:54
  TRACK 59 AUDIO
    TITLE "5:cjc137_0284"
    INDEX 01 00:44:63
  TRACK 60 AUDIO
    TITLE "0:"
    INDEX 01 00:45:67
  TRACK 61 AUDIO
    TITLE "4:cjc137_0285"
    INDEX 01 00:47:01
  TRACK 62 AUDIO
    TITLE "0:"
    INDEX 01 00:48:28
  TRACK 63 AUDIO
    TITLE "6:cjc137_0286"
    INDEX 01 00:48:36
  TRACK 64 AUDIO
    TITLE "0:"
    INDEX 01 00:49:72
  TRACK 65 AUDIO
    TITLE "5:cjc137_0287"
    INDEX 01 00:50:09
  TRACK 66 AUDIO
    TITLE "0:"
    INDEX 01 00:51:36
  TRACK 67 AUDIO
    TITLE "4:cjc137_0288"
    INDEX 01 00:52:41
  TRACK 68 AUDIO
    TITLE "0:"
    INDEX 01 00:53:49
  TRACK 69 AUDIO
    TITLE "6:cjc137_0289"
    INDEX 01 00:53:68
  TRACK 70 AUDIO
    TITLE "0:"
    INDEX 01 00:54:54
  TRACK 71 AUDIO
    TITLE "5:cjc137_0290"
    INDEX 01 00:54:66
  TRACK 72 AUDIO
    TITLE "0:"
    INDEX 01 00:56:00
  TRACK 73 AUDIO
    TITLE "4:cjc137_0291"
    INDEX 01 00:57:13
  TRACK 74 AUDIO
    TITLE "0:"
    INDEX 01 00:58:22
  TRACK 75 AUDIO
    TITLE "6:cjc137_0292"
    INDEX 01 00:58:38
  TRACK 76 AUDIO
    TITLE "0:"
    INDEX 01 00:59:57
  TRACK 77 AUDIO
    TITLE "5:cjc137_0293"
    INDEX 01 00:59:69
  TRACK 78 AUDIO
    TITLE "0:"
    INDEX 01 01:01:03
  TRACK 79 AUDIO
    TITLE "4:cjc137_0294"
    INDEX 01 01:02:16
  TRACK 80 AUDIO
    TITLE "0:"
    INDEX 01 01:03:18
  TRACK 81 AUDIO
    TITLE "6:cjc137_0295"
    INDEX 01 01:03:29
  TRACK 82 AUDIO
    TITLE "0:"
    INDEX 01 01:04:45
  TRACK 83 AUDIO
    TITLE "5:cjc137_0296"
    INDEX 01 01:04:56
  TRACK 84 AUDIO
    TITLE "0:"
    INDEX 01 01:05:58
